<?xml version="1.0" encoding="UTF-8"?>
<svg id="logo_icon" data-name="logo icon" xmlns="http://www.w3.org/2000/svg" width="350.854" height="350.854" viewBox="0 0 350.854 350.854">
  <defs>
    <style>
      .foreground {
        fill: #fff;
      }

      .background {
        fill: #231f20;
      }
    </style>
  </defs>
  <rect id="frame" class="background" width="350.854" height="350.854" rx="77.09864" ry="77.09864"/>
  <g id="tux">
    <path id="right" class="foreground" d="m193.03588,275.76653c3.14035-6.6696,5.89471-13.26543,8.25353-20.02386,6.28829-18.01695,10.78857-36.51789,14.94548-55.11127,5.0539-22.60552,9.58874-45.3119,12.79872-68.26069,1.62723-11.63356,3.03339-23.29732,1.10342-35.05548-1.08835-6.63062-2.72976-13.11957-4.83043-19.50101-.25354-.77025-1.12369-1.85168-.14463-2.44687.89455-.54383,1.65719.51445,2.28206,1.12347,7.20784,7.02495,14.33473,14.16597,20.77471,21.87825,5.3931,6.45859,12.10055,10.81082,19.35398,14.60343,14.12597,7.38602,29.08924,12.53296,44.50866,16.39094,9.36057,2.34205,12.0938,6.74089,9.30834,16.0813-3.33339,11.17774-8.80114,21.40178-14.61561,31.43941-17.6134,30.40627-41.79928,54.52188-70.84505,73.99767-12.99148,8.71104-26.46692,16.60046-40.21361,24.04126-.71464.38683-1.38151.95919-2.67959.84343Z"/>
    <path id="left" class="foreground" d="m157.37037,275.64427c-3.98829-2.16254-8.01655-4.25491-11.95809-6.49959-19.02927-10.83718-37.6129-22.36313-54.36987-36.56044-25.87998-21.92669-46.11515-48.10169-59.25415-79.53743-1.53095-3.66287-2.73874-7.41673-3.23063-11.39665-.74566-6.03315,1.69133-9.93838,7.56896-11.41649,14.96132-3.76248,29.56382-8.52395,43.48759-15.23687,5.56846-2.68467,10.89766-5.78608,16.06274-9.17669,1.42521-.93558,2.46001-2.26739,3.58935-3.49933,7.92983-8.65017,15.7462-17.40763,24.16224-25.59745.718-.6987,1.47386-2.11104,2.52347-1.5024,1.15609.67042.13069,1.95136-.19837,2.86495-4.5211,12.55158-6.83026,25.42457-5.86299,38.80536.64321,8.89763,1.76979,17.73553,3.13167,26.54755,3.04909,19.72934,6.87567,39.30736,11.38145,58.75464,4.33483,18.70942,9.05661,37.30884,15.76963,55.33861,2.23112,5.99231,4.67966,11.89704,7.5622,17.61594-.12173.16545-.24345.33088-.36518.4963Z"/>
    <path id="bow_tie" data-name="bow tie" class="foreground" d="m224.3436,113.30581c.15951,3.26318-.48681,6.39475-1.58831,9.41685-2.58114,7.08168-5.19759,14.15137-7.89471,21.18952-1.42382,3.7155-2.90116,4.06342-6.17223,1.72027-7.67614-5.49858-15.3149-11.0473-22.38957-17.32027-.86842-.77002-1.76947-1.06105-2.89313-1.05226-5.18075.04062-10.36198.06205-15.5427.03109-1.14907-.00685-2.01111.36357-2.86167,1.1192-7.00804,6.22593-14.47553,11.86612-22.14857,17.23981-3.48043,2.43747-5.00132,2.00263-6.4913-1.90732-2.68389-7.04309-5.33603-14.09829-8.00455-21.14725-1.65946-4.38346-1.9401-8.88351-1.24223-13.49172.77732-5.1329,1.71941-10.22366,3.96425-14.95409,2.01273-4.24131,4.4175-4.91238,8.39507-2.41965,8.19591,5.13636,16.39476,10.2685,24.54879,15.47074,1.2869.82103,2.54384,1.18595,4.05265,1.16765,5.18024-.06285,10.36189-.05671,15.54244-.01227,1.19116.01019,2.1948-.24533,3.20699-.89567,8.13728-5.22827,16.31194-10.39834,24.4558-15.61642,4.06712-2.60596,6.58462-2.04054,8.64293,2.22585,2.92713,6.06715,3.91418,12.60617,4.42003,19.23595Z"/>
  </g>
</svg>