<?xml version="1.0" encoding="UTF-8"?>
<svg id="logo-2" data-name="logo" xmlns="http://www.w3.org/2000/svg" width="1903.00755" height="201.61811" xmlns:xlink="http://www.w3.org/1999/xlink" viewBox="0 0 1903.00755 201.61811">
  <defs>
    <style>
      .cls-1 {
        fill: url(#linear-gradient);
      }

      .foreground {
        fill: #fff;
      }

      @media (prefers-color-scheme: light) {
        .foreground {
          fill: #000;
        }

        linearGradient stop:nth-child(1) {
          stop-color: #F20080;
        }

        linearGradient stop:nth-child(2) {
          stop-color: #CC0066;
        }

        linearGradient stop:nth-child(3) {
          stop-color: #4C24BD;
        }

        linearGradient stop:nth-child(4) {
          stop-color: #4C24BD;
        }

        linearGradient stop:nth-child(5) {
          stop-color: #20B28B;
        }
      }
    </style>
    <linearGradient id="linear-gradient" x1="1442.82456" y1="100.81164" x2="1903.00755" y2="100.81164" gradientUnits="userSpaceOnUse">
      <stop offset="0" stop-color="#9fb1ea"/>
      <stop offset=".09" stop-color="#8296e8"/>
      <stop offset=".42" stop-color="#26a0eb"/>
      <stop offset=".47" stop-color="#48aeec"/>
      <stop offset="1" stop-color="#e96ba2"/>
    </linearGradient>
  </defs>
  <g id="UX">
    <path class="cls-1" d="m1834.04556,100.85463l62.35059-62.18286c8.79834-8.77539,8.81787-23.02148.04248-31.82031-8.77539-8.79785-23.021-8.81641-31.81982-.04297l-62.35059,62.18311-62.18311-62.35107c-8.77539-8.79883-23.021-8.81641-31.81982-.04297-8.79834,8.77539-8.81738,23.02148-.04248,31.82031l62.18262,62.35059-62.3501,62.18262c-8.79883,8.77539-8.81787,23.02148-.04297,31.82031,4.39551,4.40723,10.1626,6.61133,15.93115,6.61133,5.74805,0,11.49707-2.18945,15.88867-6.56836l62.35059-62.18286,62.18311,62.35083c4.39551,4.40723,10.1626,6.61133,15.93115,6.61133,5.74805,0,11.49707-2.18945,15.88867-6.56836,8.79834-8.77539,8.81787-23.02148.04248-31.82031l-62.18262-62.35034ZM1620.9435.68349c-12.42627,0-22.5,10.07324-22.5,22.5v75.81055c-.03125,15.73535-6.35303,30.45215-17.80127,41.44141-10.88672,10.45117-25.36768,16.1123-39.71631,15.56445-28.7251-1.12012-52.5293-26.17334-53.10156-55.86548V23.08486c0-12.42676-10.07373-22.5-22.5-22.5s-22.5,10.07324-22.5,22.5v78.57129c0,.698.03662,1.38721.09863,2.06885,1.13965,24.99878,11.29736,48.57593,28.79248,66.6665,18.10986,18.72656,42.06689,29.58398,67.45801,30.57422,1.22266.04688,2.44189.07129,3.66357.07129,25.26172,0,50.2168-10.13867,68.96729-28.1377,20.34717-19.53027,31.5835-45.74512,31.63916-73.81543,0-.00781-.00049-.01562-.00049-.02344,0-.00708.00049-.01416.00049-.02148V23.18349c0-12.42676-10.07373-22.5-22.5-22.5Z"/>
  </g>
  <path id="T" class="foreground" d="m1379.82456,22.52441c0,12.42676-10.07373,22.5-22.5,22.5h-56.05664v133.96484c0,12.42676-10.07373,22.5-22.5,22.5s-22.5-10.07324-22.5-22.5V45.02441s-56.05615,0-56.05615,0c-29.54727-.49678-29.59592-44.49555.00097-44.99996-.00097-.00004,157.11182-.00004,157.11182-.00004,12.42627,0,22.5,10.07324,22.5,22.5Z"/>
  <path id="X" class="foreground" d="m1117.46426,6.87598c-8.77539-8.79883-23.021-8.81641-31.81982-.04297l-62.35095,62.18335-62.18274-62.35034c-8.77539-8.79883-23.021-8.81641-31.81982-.04297-8.79834,8.77539-8.81738,23.02148-.04248,31.82031l62.18237,62.3501-62.34985,62.18213c-8.79883,8.77539-8.81787,23.02148-.04297,31.82031,8.77576,8.79955,23.02145,8.81615,31.81982.04297,0,0,62.35034-62.18262,62.35034-62.18262l62.18286,62.35059c8.77575,8.79955,23.02145,8.81615,31.81982.04297,8.79834-8.77539,8.81738-23.02148.04248-31.82031l-62.1825-62.3501,62.35095-62.18311c8.79834-8.77539,8.81787-23.02148.04248-31.82031Z"/>
  <g id="E">
    <path class="foreground" d="m839.87018,156.56348h-157.11279c-29.52917.48994-29.61049,44.4945.00099,44.99996-.00099.00004,157.11181.00004,157.11181.00004,12.42627,0,22.5-10.07324,22.5-22.5s-10.07373-22.5-22.5-22.5Z"/>
    <path class="foreground" d="m839.9693,0h-157.11328c-29.52917.48994-29.61049,44.4945.00099,44.99996-.00099.00004,157.11229.00004,157.11229.00004,12.42627,0,22.5-10.07324,22.5-22.5s-10.07373-22.5-22.5-22.5Z"/>
    <path class="foreground" d="m684.05915,123.18262h129.31396c29.53773-.49264,29.60343-44.49537-.00098-44.99996.00098-.00004-129.31298-.00004-129.31298-.00004-12.42627,0-22.5,10.07324-22.5,22.5s10.07373,22.5,22.5,22.5Z"/>
  </g>
  <path id="N" class="foreground" d="m569.07004.09766c-12.42627,0-22.5,10.07324-22.5,22.5v102.04248S428.85813,6.61133,428.85813,6.61133c-1.0534-1.05519-2.21194-2.00187-3.45105-2.83276-7.32881-5.00195-17.58434-5.01245-24.92285-.02382-5.59311,3.67921-9.36109,9.94011-9.95407,16.61588-.39448,2.96145.06749,155.74755-.1036,158.59843.00042,12.42255,10.07415,22.49579,22.50042,22.49579s22.5-10.07324,22.5-22.5c0,0,0-102.0415,0-102.0415l117.71191,118.02881c1.57752,1.57964,3.38937,2.91981,5.35889,3.97388,14.25452,8.17749,33.59719-3.43238,33.07188-19.86312.00039.00057.00039-156.46525.00039-156.46525,0-12.42676-10.07373-22.5-22.5-22.5Z"/>
  <g id="tux">
    <path id="right" class="foreground" d="m164.60888,201.14857c3.14035-6.6696,5.89471-13.26543,8.25353-20.02386,6.28829-18.01695,10.78857-36.51789,14.94548-55.11127,5.0539-22.60552,9.58874-45.3119,12.79872-68.26069,1.62723-11.63356,3.03339-23.29732,1.10342-35.05548-1.08835-6.63062-2.72976-13.11957-4.83043-19.50101-.25354-.77025-1.12369-1.85168-.14463-2.44687.89455-.54383,1.65719.51445,2.28206,1.12347,7.20784,7.02495,14.33473,14.16597,20.77471,21.87825,5.3931,6.45859,12.10055,10.81082,19.35398,14.60343,14.12597,7.38602,29.08924,12.53296,44.50866,16.39094,9.36057,2.34205,12.0938,6.74089,9.30834,16.0813-3.33339,11.17774-8.80114,21.40178-14.61561,31.43941-17.6134,30.40627-41.79928,54.52188-70.84505,73.99767-12.99148,8.71104-26.46692,16.60046-40.21361,24.04126-.71464.38683-1.38151.95919-2.67959.84343Z"/>
    <path id="left" class="foreground" d="m128.94337,201.02631c-3.98829-2.16254-8.01655-4.25491-11.95809-6.49959-19.02927-10.83718-37.6129-22.36313-54.36987-36.56044-25.87998-21.92669-46.11515-48.10169-59.25415-79.53743-1.53095-3.66287-2.73874-7.41673-3.23063-11.39665-.74566-6.03315,1.69133-9.93838,7.56896-11.41649,14.96132-3.76248,29.56382-8.52395,43.48759-15.23687,5.56846-2.68467,10.89766-5.78608,16.06274-9.17669,1.42521-.93558,2.46001-2.26739,3.58935-3.49933,7.92983-8.65017,15.7462-17.40763,24.16224-25.59745.718-.6987,1.47386-2.11104,2.52347-1.5024,1.15609.67042.13069,1.95136-.19837,2.86495-4.5211,12.55158-6.83026,25.42457-5.86299,38.80536.64321,8.89763,1.76979,17.73553,3.13167,26.54755,3.04909,19.72934,6.87567,39.30736,11.38145,58.75464,4.33483,18.70942,9.05661,37.30884,15.76963,55.33861,2.23112,5.99231,4.67966,11.89704,7.5622,17.61594-.12173.16545-.24345.33088-.36518.4963Z"/>
    <path id="bow_tie" data-name="bow tie" class="foreground" d="m195.9166,38.68786c.15951,3.26318-.48681,6.39475-1.58831,9.41685-2.58114,7.08168-5.19759,14.15137-7.89471,21.18952-1.42382,3.7155-2.90116,4.06342-6.17223,1.72027-7.67614-5.49858-15.3149-11.0473-22.38957-17.32027-.86842-.77002-1.76947-1.06105-2.89313-1.05226-5.18075.04062-10.36198.06205-15.5427.03109-1.14907-.00685-2.01111.36357-2.86167,1.1192-7.00804,6.22593-14.47553,11.86612-22.14857,17.23981-3.48043,2.43747-5.00132,2.00263-6.4913-1.90732-2.68389-7.04309-5.33603-14.09829-8.00455-21.14725-1.65946-4.38346-1.9401-8.88351-1.24223-13.49172.77732-5.1329,1.71941-10.22366,3.96425-14.95409,2.01273-4.24131,4.4175-4.91238,8.39507-2.41965,8.19591,5.13636,16.39476,10.2685,24.54879,15.47074,1.2869.82103,2.54384,1.18595,4.05265,1.16765,5.18024-.06285,10.36189-.05671,15.54244-.01227,1.19116.01019,2.1948-.24533,3.20699-.89567,8.13728-5.22827,16.31194-10.39834,24.4558-15.61642,4.06712-2.60596,6.58462-2.04054,8.64293,2.22585,2.92713,6.06715,3.91418,12.60617,4.42003,19.23595Z"/>
  </g>
</svg>
