<?xml version="1.0" standalone="no"?>
<!DOCTYPE svg PUBLIC "-//W3C//DTD SVG 20010904//EN"
 "http://www.w3.org/TR/2001/REC-SVG-20010904/DTD/svg10.dtd">
<svg version="1.0" xmlns="http://www.w3.org/2000/svg"
 width="700.000000pt" height="700.000000pt" viewBox="0 0 700.000000 700.000000"
 preserveAspectRatio="xMidYMid meet">
<metadata>
Created by potrace 1.14, written by Peter Selinger 2001-2017
</metadata>
<g transform="translate(0.000000,700.000000) scale(0.100000,-0.100000)"
fill="#000000" stroke="none">
<path d="M2219 5808 c-76 -77 -307 -320 -360 -379 -66 -74 -207 -226 -231
-249 -41 -40 -269 -172 -429 -249 -225 -108 -495 -210 -729 -276 -3 -1 -30 -9
-60 -18 -30 -9 -105 -29 -166 -45 -137 -36 -172 -56 -219 -127 -17 -25 -20
-45 -18 -120 1 -49 3 -97 6 -105 2 -8 7 -28 12 -45 19 -75 64 -191 123 -315
19 -41 36 -77 37 -80 1 -7 47 -95 103 -200 72 -136 253 -425 315 -505 4 -5 37
-49 72 -97 224 -301 547 -637 869 -903 27 -22 54 -45 60 -50 113 -103 725
-518 921 -625 22 -12 52 -29 67 -38 23 -15 197 -114 313 -179 96 -54 165 -87
170 -81 3 3 -6 27 -20 54 -90 176 -219 524 -314 849 -23 77 -48 163 -56 190
-22 74 -129 502 -160 640 -15 66 -33 147 -41 180 -26 113 -104 488 -119 570
-3 17 -14 80 -25 140 -11 61 -22 121 -25 135 -2 14 -11 68 -20 120 -8 52 -17
106 -20 120 -12 68 -15 89 -21 140 -3 30 -8 58 -10 61 -4 6 -40 293 -49 384
-3 33 -8 80 -12 105 -9 71 -11 328 -2 410 10 94 19 159 24 185 3 11 7 31 9 45
12 69 41 177 78 287 38 115 42 153 19 153 -5 0 -47 -37 -92 -82z"/>
<path d="M4682 5877 c-7 -8 -1 -40 19 -101 35 -106 75 -263 84 -326 3 -25 10
-61 15 -80 27 -103 29 -411 5 -630 -6 -48 -62 -448 -70 -490 -2 -14 -20 -117
-39 -230 -46 -265 -38 -220 -107 -565 -33 -165 -71 -349 -85 -410 -14 -60 -28
-121 -30 -135 -3 -14 -7 -33 -10 -42 -3 -10 -7 -28 -10 -40 -10 -57 -62 -277
-74 -318 -6 -19 -13 -48 -16 -65 -3 -16 -12 -55 -20 -85 -8 -30 -17 -64 -19
-76 -8 -34 -84 -303 -116 -409 -75 -245 -152 -454 -233 -636 -30 -68 -50 -125
-45 -127 9 -4 105 46 289 150 63 36 131 74 150 85 312 176 769 484 1027 694
266 215 542 486 747 734 32 39 66 79 75 90 127 153 336 469 478 725 192 345
297 615 298 765 0 69 -3 85 -25 115 -13 19 -31 41 -40 48 -34 28 -110 61 -190
82 -127 33 -303 85 -410 120 -281 93 -658 266 -831 382 -96 64 -230 190 -354
333 -86 98 -414 433 -436 446 -11 5 -20 4 -27 -4z"/>
<path d="M2504 5511 c-44 -27 -104 -162 -128 -286 -2 -11 -7 -38 -11 -60 -4
-22 -10 -49 -12 -60 -12 -54 -11 -196 2 -255 10 -51 81 -252 122 -350 3 -8 7
-19 9 -25 1 -5 25 -68 53 -140 53 -138 75 -167 118 -159 44 8 294 190 512 373
l114 96 213 1 c149 1 221 -2 237 -11 12 -6 66 -47 119 -91 198 -163 455 -352
497 -364 44 -12 65 9 101 103 18 45 42 109 55 142 124 321 165 456 160 537
-17 277 -93 515 -178 556 -50 24 -68 15 -619 -338 -59 -38 -117 -71 -129 -75
-11 -4 -118 -7 -238 -8 -182 0 -221 2 -248 16 -17 9 -161 99 -320 199 -281
177 -352 217 -383 218 -8 0 -29 -9 -46 -19z"/>
</g>
</svg>
